<?xml version="1.0" encoding="UTF-8"?>
<svg version="1.1" xmlns="http://www.w3.org/2000/svg" width="532" height="532">
<path d="M0 0 C2.49661918 -0.0043534 4.99323702 -0.00953863 7.48985291 -0.01548767 C13.53893633 -0.02744024 19.5879545 -0.03003728 25.63704375 -0.02768741 C30.55981423 -0.02589607 35.48257131 -0.02767125 40.40534019 -0.03191185 C41.10902752 -0.03250704 41.81271485 -0.03310223 42.53772604 -0.03371545 C43.96779913 -0.03492735 45.39787223 -0.03614148 46.82794531 -0.03735783 C60.205379 -0.04820607 73.58278741 -0.0460838 86.96022251 -0.03997298 C99.16314822 -0.03480641 111.36599404 -0.04605726 123.56890396 -0.0650712 C136.13856473 -0.08450446 148.70818781 -0.09269601 161.27786368 -0.08894795 C168.31885802 -0.08704419 175.3597844 -0.08944237 182.40076637 -0.10366249 C189.0255278 -0.11690811 195.6501567 -0.11424221 202.27492714 -0.1012516 C204.69469763 -0.09889883 207.11447952 -0.10157343 209.53423691 -0.10987473 C222.77762298 -0.1520029 235.23049146 0.3394801 248.18041992 3.2746582 C249.67080387 3.60461304 249.67080387 3.60461304 251.19129658 3.94123363 C253.47448456 4.46265185 255.73266584 5.03694025 257.99291992 5.6496582 C258.79221924 5.86605957 259.59151855 6.08246094 260.41503906 6.30541992 C274.42325726 10.20737531 286.58927011 17.155241 299.18041992 24.2746582 C299.18041992 24.9346582 299.18041992 25.5946582 299.18041992 26.2746582 C299.86104492 26.5015332 300.54166992 26.7284082 301.24291992 26.9621582 C304.87929082 28.58691967 308.20871255 30.60269077 311.18041992 33.2746582 C311.18041992 33.9346582 311.18041992 34.5946582 311.18041992 35.2746582 C311.88166992 35.48477539 312.58291992 35.69489258 313.30541992 35.91137695 C316.97168343 37.64986332 319.42202061 40.19223913 322.18041992 43.0871582 C322.68831055 43.60858398 323.19620117 44.13000977 323.71948242 44.66723633 C324.73078316 45.70576439 325.73855691 46.7477393 326.74267578 47.79321289 C328.0541819 49.14458309 329.39892721 50.46349103 330.74682617 51.77856445 C333.4079623 54.50804436 335.79794028 57.38159541 338.11791992 60.3996582 C338.77195801 61.2500769 338.77195801 61.2500769 339.43920898 62.11767578 C342.67885471 66.41976658 345.34966676 70.8586584 347.81323242 75.65356445 C349.20189167 78.31582261 350.7246123 80.84755834 352.30541992 83.3996582 C356.69397145 90.6527995 359.69173358 98.1949505 362.18041992 106.2746582 C362.37812988 106.89969238 362.57583984 107.52472656 362.77954102 108.16870117 C367.66396802 123.66424888 367.66396802 123.66424888 368.03979492 131.48950195 C368.07621693 133.37924545 368.07621693 133.37924545 369.18041992 135.2746582 C369.27657107 136.66963787 369.31138006 138.069093 369.314641 139.46737862 C369.31909884 140.3517926 369.32355669 141.23620659 369.32814962 142.147421 C369.32787307 143.61408674 369.32787307 143.61408674 369.32759094 145.11038208 C369.33126763 146.14463031 369.33494432 147.17887853 369.33873242 148.24446762 C369.34980492 151.7338655 369.35361934 155.22323363 369.35742188 158.71264648 C369.3636845 161.20598954 369.37033111 163.69933165 369.37733459 166.19267273 C369.39660105 173.69962891 369.40717579 181.20657719 369.41606238 188.71355087 C369.42044799 192.25592277 369.42581471 195.79829318 369.43105125 199.34066391 C369.44807848 211.13422141 369.46256399 222.92777799 369.4698 234.7213459 C369.47170971 237.78403856 369.47363005 240.8467312 369.47558594 243.90942383 C369.47606968 244.67058537 369.47655342 245.43174691 369.47705182 246.21597396 C369.48531931 258.49578039 369.5105935 270.77548836 369.54316662 283.05525197 C369.57640203 295.68897174 369.59426419 308.32264186 369.59744424 320.95640552 C369.59959598 328.03863734 369.60814427 335.12072631 369.63390541 342.20291519 C369.65815822 348.88585601 369.66133592 355.56849818 369.65114403 362.25148964 C369.6506534 364.68605591 369.65683149 367.12063561 369.67070007 369.55516243 C369.91782547 415.56609566 355.45563459 455.20693164 323.24291992 488.5871582 C289.96706176 520.57699286 249.05397124 532.98018534 203.62451172 532.77636719 C201.16906934 532.78016247 198.71362911 532.78567236 196.25819397 532.79273987 C190.34745306 532.80512567 184.43690951 532.79924836 178.52619138 532.78406429 C171.61361809 532.7669981 164.70109581 532.77043979 157.78850792 532.77415837 C145.44148153 532.78000453 133.0945579 532.76599103 120.74755859 532.74121094 C108.81880855 532.71727365 96.89019554 532.71022104 84.96142578 532.72070312 C71.90370195 532.73215703 58.84604111 532.73398947 45.78831798 532.71960503 C44.39168823 532.71807951 42.99505848 532.71655915 41.59842873 532.71504402 C40.91162617 532.71428621 40.22482362 532.71352839 39.51720887 532.71274761 C34.71982867 532.70804125 29.92247699 532.70982983 25.12509727 532.71410942 C18.65120153 532.71959995 12.1774516 532.70862214 5.70358849 532.68715477 C3.34270865 532.68163911 0.98181063 532.68107287 -1.37907028 532.68610764 C-47.57537016 532.77219851 -86.66213567 517.62685039 -119.81958008 485.2746582 C-142.78452596 462.04356229 -156.72876634 432.35283726 -161.81958008 400.2746582 C-161.98958464 399.28993688 -162.1595892 398.30521555 -162.33474541 397.29065418 C-163.02039356 392.43223162 -162.95773308 387.58762585 -162.94656372 382.68962097 C-162.94812371 381.63557817 -162.9496837 380.58153537 -162.95129097 379.49555188 C-162.95527365 375.97032758 -162.95212193 372.44514648 -162.94897461 368.91992188 C-162.95032982 366.39014664 -162.95211043 363.86037159 -162.95428467 361.33059692 C-162.95837037 355.17798496 -162.95777365 349.02538895 -162.95487203 342.87277677 C-162.95261237 337.87438976 -162.95230791 332.87600617 -162.95339584 327.87761879 C-162.95354908 327.16587683 -162.95370231 326.45413486 -162.95386019 325.72082496 C-162.95417991 324.27493816 -162.95450412 322.82905136 -162.95483278 321.38316456 C-162.95768234 307.83501706 -162.95440821 294.28687633 -162.94903241 280.73872993 C-162.94456003 269.10690381 -162.94534489 257.47508766 -162.94995117 245.84326172 C-162.95529788 232.33537692 -162.95741277 218.82749804 -162.95433891 205.31961232 C-162.95402035 203.88061448 -162.95370598 202.44161664 -162.95339584 201.00261879 C-162.95324157 200.29458879 -162.95308729 199.58655879 -162.95292834 198.85707333 C-162.95206384 193.860552 -162.95352454 188.86403441 -162.9558754 183.86751366 C-162.9589661 177.15099849 -162.95677863 170.43450516 -162.95098114 163.71799088 C-162.94965375 161.24677499 -162.95004731 158.77555753 -162.9522438 156.30434227 C-162.95495594 152.9444654 -162.95157343 149.58465012 -162.94656372 146.22477722 C-162.94879444 145.23540403 -162.95102516 144.24603084 -162.95332348 143.22667664 C-162.95071574 142.33177877 -162.94810799 141.43688091 -162.94542122 140.51486492 C-162.94525887 139.73871387 -162.94509651 138.96256282 -162.94492924 138.16289204 C-162.81958008 136.2746582 -162.81958008 136.2746582 -161.81958008 134.2746582 C-161.54696995 132.2567506 -161.30183604 130.23510767 -161.06958008 128.2121582 C-159.28932537 115.35476309 -155.25625164 103.04595008 -149.81958008 91.2746582 C-149.38000977 90.31430664 -148.94043945 89.35395508 -148.48754883 88.36450195 C-142.80723553 76.48748325 -135.37218319 64.32447961 -126.81958008 54.2746582 C-126.15958008 54.2746582 -125.49958008 54.2746582 -124.81958008 54.2746582 C-124.59270508 53.7384082 -124.36583008 53.2021582 -124.13208008 52.6496582 C-117.81438304 41.21763499 -105.0521657 33.85974431 -94.81958008 26.2746582 C-94.23128418 25.80479492 -93.64298828 25.33493164 -93.03686523 24.85083008 C-87.87764689 20.79409761 -82.51516786 17.90066624 -76.56958008 15.1496582 C-75.63936035 14.71443848 -74.70914063 14.27921875 -73.75073242 13.83081055 C-67.22876394 10.82303482 -60.7492629 8.19538551 -53.81958008 6.2746582 C-52.64395508 5.92918945 -51.46833008 5.5837207 -50.25708008 5.2277832 C-33.43560712 0.47089126 -17.38161874 -0.02008818 0 0 Z " fill="#9B82F7" transform="translate(162.819580078125,-0.274658203125)"/>
<path d="M0 0 C1.14726562 0.38542969 2.29453125 0.77085937 3.4765625 1.16796875 C15.07940751 5.36618785 24.59595975 11.06325681 34 19 C35.010625 19.763125 36.02125 20.52625 37.0625 21.3125 C54.10480929 36.90439999 64.94442144 60.164148 66.11373901 83.24507141 C66.18022083 85.68451779 66.21639693 88.12224537 66.23828125 90.5625 C66.2480751 91.46336334 66.25786896 92.36422668 66.26795959 93.29238892 C66.5980765 131.51240812 66.5980765 131.51240812 62 149 C61.79632812 149.78262207 61.59265625 150.56524414 61.3828125 151.37158203 C50.44187113 191.47992496 22.78822256 225.17545822 -12.92919922 245.84326172 C-40.22357219 261.08975301 -68.55920526 265.64077493 -99.5559082 265.50170898 C-102.01135058 265.50550426 -104.46679081 265.51101415 -106.92222595 265.51808167 C-112.83296686 265.53046747 -118.74351041 265.52459015 -124.65422855 265.50940608 C-131.56680183 265.4923399 -138.47932411 265.49578158 -145.39191201 265.49950016 C-157.73893839 265.50534633 -170.08586203 265.49133283 -182.43286133 265.46655273 C-194.36161137 265.44261544 -206.29022438 265.43556284 -218.21899414 265.44604492 C-231.27671797 265.45749883 -244.33437881 265.45933127 -257.39210194 265.44494683 C-258.78873169 265.44342131 -260.18536144 265.44190095 -261.5819912 265.44038582 C-262.26879375 265.439628 -262.9555963 265.43887019 -263.66321105 265.43808941 C-268.46059125 265.43338305 -273.25794293 265.43517162 -278.05532265 265.43945122 C-284.52921839 265.44494175 -291.00296832 265.43396394 -297.47683144 265.41249657 C-299.83771127 265.40698091 -302.19860929 265.40641466 -304.5594902 265.41144943 C-350.75579008 265.49754031 -389.84255559 250.35219218 -423 218 C-448.68063871 192.021738 -465.18621284 156.43145521 -465.5 119.75 C-465.27414889 95.5489152 -455.81553604 74.24372775 -439.125 56.6875 C-415.60164909 34.71050483 -388.55884764 30.14797483 -357.6953125 27.125 C-355.96058634 26.95344411 -354.22587599 26.78172827 -352.49118042 26.60986328 C-348.87253612 26.25192867 -345.25372027 25.89579829 -341.63476562 25.54101562 C-337.07511503 25.09388612 -332.51590863 24.64239953 -327.95681286 24.18965244 C-310.26837543 22.43471954 -292.58572836 20.71583464 -274.85913086 19.38842773 C-268.93561228 18.93617865 -263.04434663 18.25405345 -257.14453125 17.5625 C-250.31511831 16.79173003 -243.46860207 16.19139157 -236.625 15.5625 C-226.61545192 14.64095976 -216.61702715 13.66100652 -206.625 12.5625 C-180.05959557 9.65844859 -153.44024117 7.20013661 -126.80444336 5.0390625 C-119.28722712 4.41690974 -111.80616944 3.65125546 -104.31954956 2.74324036 C-97.08006545 1.87177976 -89.82511555 1.2107523 -82.5625 0.5625 C-73.58741988 -0.24375535 -64.64387193 -1.13554791 -55.7043457 -2.28125 C-36.8462536 -4.67209688 -18.2523702 -6.18485392 0 0 Z " fill="#000001" transform="translate(466,267)"/>
<path d="M0 0 C2.49661918 -0.0043534 4.99323702 -0.00953863 7.48985291 -0.01548767 C13.53893633 -0.02744024 19.5879545 -0.03003728 25.63704375 -0.02768741 C30.55981423 -0.02589607 35.48257131 -0.02767125 40.40534019 -0.03191185 C41.10902752 -0.03250704 41.81271485 -0.03310223 42.53772604 -0.03371545 C43.96779913 -0.03492735 45.39787223 -0.03614148 46.82794531 -0.03735783 C60.205379 -0.04820607 73.58278741 -0.0460838 86.96022251 -0.03997298 C99.16314822 -0.03480641 111.36599404 -0.04605726 123.56890396 -0.0650712 C136.13856473 -0.08450446 148.70818781 -0.09269601 161.27786368 -0.08894795 C168.31885802 -0.08704419 175.3597844 -0.08944237 182.40076637 -0.10366249 C189.0255278 -0.11690811 195.6501567 -0.11424221 202.27492714 -0.1012516 C204.69469763 -0.09889883 207.11447952 -0.10157343 209.53423691 -0.10987473 C222.77762298 -0.1520029 235.23049146 0.3394801 248.18041992 3.2746582 C249.67080387 3.60461304 249.67080387 3.60461304 251.19129658 3.94123363 C253.47448456 4.46265185 255.73266584 5.03694025 257.99291992 5.6496582 C258.79221924 5.86605957 259.59151855 6.08246094 260.41503906 6.30541992 C274.42325726 10.20737531 286.58927011 17.155241 299.18041992 24.2746582 C299.18041992 24.9346582 299.18041992 25.5946582 299.18041992 26.2746582 C299.86104492 26.5015332 300.54166992 26.7284082 301.24291992 26.9621582 C304.87929082 28.58691967 308.20871255 30.60269077 311.18041992 33.2746582 C311.18041992 33.9346582 311.18041992 34.5946582 311.18041992 35.2746582 C311.88166992 35.48477539 312.58291992 35.69489258 313.30541992 35.91137695 C316.97168343 37.64986332 319.42202061 40.19223913 322.18041992 43.0871582 C322.68831055 43.60858398 323.19620117 44.13000977 323.71948242 44.66723633 C324.73078316 45.70576439 325.73855691 46.7477393 326.74267578 47.79321289 C328.0541819 49.14458309 329.39892721 50.46349103 330.74682617 51.77856445 C333.4079623 54.50804436 335.79794028 57.38159541 338.11791992 60.3996582 C338.77195801 61.2500769 338.77195801 61.2500769 339.43920898 62.11767578 C342.67885471 66.41976658 345.34966676 70.8586584 347.81323242 75.65356445 C349.20189167 78.31582261 350.7246123 80.84755834 352.30541992 83.3996582 C356.69397145 90.6527995 359.69173358 98.1949505 362.18041992 106.2746582 C362.37812988 106.89969238 362.57583984 107.52472656 362.77954102 108.16870117 C367.66396802 123.66424888 367.66396802 123.66424888 368.03979492 131.48950195 C368.07621693 133.37924545 368.07621693 133.37924545 369.18041992 135.2746582 C369.27376424 138.14297372 369.30616803 140.98684084 369.29394531 143.85522461 C369.29409134 144.74309158 369.29423737 145.63095856 369.29438782 146.54573059 C369.29368948 149.48925189 369.28590073 152.43271042 369.27807617 155.3762207 C369.27621171 157.41360438 369.27478794 159.45098851 369.27378845 161.4883728 C369.26996547 166.85763786 369.26013703 172.22687598 369.24908447 177.59613037 C369.23886566 183.07230261 369.23428982 188.54847919 369.22924805 194.0246582 C369.21851459 204.77467006 369.20144077 215.52466189 369.18041992 226.2746582 C368.85041992 226.2746582 368.52041992 226.2746582 368.18041992 226.2746582 C368.08245117 225.41485352 367.98448242 224.55504883 367.88354492 223.66918945 C366.4156386 212.06513692 364.11896031 201.5318293 357.66479492 191.5949707 C356.2694479 189.41382299 355.13953461 187.21781398 353.99291992 184.8996582 C350.46895112 178.50681736 345.27108577 173.42755713 340.18041992 168.2746582 C339.40827148 167.47801758 338.63612305 166.68137695 337.84057617 165.8605957 C319.00296595 147.6348053 294.83958854 142.64133241 269.6105957 140.56787109 C264.72869188 140.16635681 259.84933325 139.73542961 254.96948242 139.30981445 C253.47992035 139.18118515 253.47992035 139.18118515 251.96026611 139.04995728 C242.35736953 138.21639499 232.76914474 137.25597167 223.18041992 136.2746582 C210.68497043 135.00225235 198.18553236 133.807904 185.67486572 132.69522095 C165.1710576 130.87091377 144.68609093 128.87093873 124.20328522 126.82629776 C121.81386394 126.58800033 119.42436721 126.3504728 117.03485107 126.11312866 C113.24597664 125.73658746 109.45733276 125.35780466 105.66886139 124.97723007 C104.25902822 124.8358491 102.84913242 124.69509108 101.43917084 124.55499649 C99.48896032 124.36100008 97.53902909 124.16420233 95.58911133 123.96728516 C94.49160553 123.85721634 93.39409973 123.74714752 92.26333618 123.63374329 C89.21360279 123.2785232 86.20797722 122.78155574 83.18041992 122.2746582 C79.46580238 122.01521152 75.75117308 121.83451886 72.03198242 121.65356445 C67.91791323 121.3876395 63.85394405 120.8656006 59.76635742 120.33325195 C50.92566671 119.18494213 42.06699589 118.46217463 33.18041992 117.7746582 C23.05062327 116.9909591 12.98842443 116.04665408 2.9128418 114.73413086 C-2.56951419 114.05923591 -8.06216594 113.62342614 -13.56958008 113.2121582 C-15.62710754 113.05771601 -17.68441389 112.90029135 -19.74145508 112.73950195 C-20.62414062 112.6736792 -21.50682617 112.60785645 -22.41625977 112.54003906 C-24.81958008 112.2746582 -24.81958008 112.2746582 -26.85229492 111.76318359 C-29.06130285 111.21463248 -31.10077387 111.08184537 -33.37426758 110.9934082 C-34.6678418 110.93733398 -34.6678418 110.93733398 -35.98754883 110.88012695 C-36.88086914 110.84532227 -37.77418945 110.81051758 -38.69458008 110.7746582 C-40.46294687 110.70515907 -42.23118613 110.63232305 -43.99926758 110.5559082 C-44.78027832 110.52561523 -45.56128906 110.49532227 -46.3659668 110.46411133 C-48.81958008 110.2746582 -48.81958008 110.2746582 -51.7409668 109.77197266 C-71.59032489 106.56553789 -94.02969346 108.52443188 -111.81958008 118.2746582 C-113.05708008 118.93594727 -113.05708008 118.93594727 -114.31958008 119.6105957 C-124.50293522 125.37055596 -134.60626857 133.26365307 -141.63208008 142.7121582 C-142.02395508 143.2277832 -142.41583008 143.7434082 -142.81958008 144.2746582 C-143.47958008 144.2746582 -144.13958008 144.2746582 -144.81958008 144.2746582 C-144.92657227 144.83797852 -145.03356445 145.40129883 -145.14379883 145.98168945 C-145.93148175 148.65434769 -147.13749392 150.61244174 -148.63208008 152.9621582 C-153.1111206 160.32058192 -156.03373094 167.60894286 -158.50708008 175.8371582 C-158.72178955 176.54557861 -158.93649902 177.25399902 -159.15771484 177.98388672 C-160.53773799 182.7425682 -161.31496798 187.34498612 -161.81958008 192.2746582 C-162.14958008 192.2746582 -162.47958008 192.2746582 -162.81958008 192.2746582 C-162.84272789 185.00771347 -162.86050764 177.74077667 -162.87139225 170.47380257 C-162.87661573 167.09962794 -162.88370369 163.72547849 -162.89501953 160.35131836 C-162.90710444 156.47419561 -162.91281271 152.5971088 -162.91723633 148.7199707 C-162.92239761 147.50536163 -162.9275589 146.29075256 -162.93287659 145.03933716 C-162.93298988 143.35782059 -162.93298988 143.35782059 -162.93310547 141.64233398 C-162.93532608 140.65194122 -162.93754669 139.66154846 -162.93983459 138.6411438 C-162.81958008 136.2746582 -162.81958008 136.2746582 -161.81958008 134.2746582 C-161.54696995 132.2567506 -161.30183604 130.23510767 -161.06958008 128.2121582 C-159.28932537 115.35476309 -155.25625164 103.04595008 -149.81958008 91.2746582 C-149.38000977 90.31430664 -148.94043945 89.35395508 -148.48754883 88.36450195 C-142.80723553 76.48748325 -135.37218319 64.32447961 -126.81958008 54.2746582 C-126.15958008 54.2746582 -125.49958008 54.2746582 -124.81958008 54.2746582 C-124.59270508 53.7384082 -124.36583008 53.2021582 -124.13208008 52.6496582 C-117.81438304 41.21763499 -105.0521657 33.85974431 -94.81958008 26.2746582 C-94.23128418 25.80479492 -93.64298828 25.33493164 -93.03686523 24.85083008 C-87.87764689 20.79409761 -82.51516786 17.90066624 -76.56958008 15.1496582 C-75.63936035 14.71443848 -74.70914063 14.27921875 -73.75073242 13.83081055 C-67.22876394 10.82303482 -60.7492629 8.19538551 -53.81958008 6.2746582 C-52.64395508 5.92918945 -51.46833008 5.5837207 -50.25708008 5.2277832 C-33.43560712 0.47089126 -17.38161874 -0.02008818 0 0 Z " fill="#FAE6A2" transform="translate(162.819580078125,-0.274658203125)"/>
<path d="M0 0 C3.39416909 2.21358854 6.13539619 4.18020045 7.875 7.875 C8.857356 14.1861739 8.41968044 18.53720665 4.875 23.875 C3.52393002 25.3968857 2.12068919 26.87339948 0.67988586 28.31062317 C-0.17406769 29.16732605 -1.02802124 30.02402893 -1.90785217 30.9066925 C-2.84149094 31.83314072 -3.7751297 32.75958893 -4.73706055 33.71411133 C-5.73299403 34.70948027 -6.72848655 35.70529061 -7.72357178 36.70150757 C-10.41926183 39.39777047 -13.12106533 42.0878306 -15.82402015 44.77680802 C-18.65032549 47.59059472 -21.47095263 50.41006175 -24.29219055 53.22892761 C-29.63235918 58.56288481 -34.97760471 63.89172406 -40.32469922 69.2187373 C-46.41324637 75.28491498 -52.49610257 81.35678558 -58.57849061 87.42913783 C-71.08767802 99.91743087 -83.60398387 112.39856727 -96.125 124.875 C-100.01558166 123.06815233 -102.70955564 120.57311086 -105.70385742 117.55493164 C-106.24903519 117.01325851 -106.79421295 116.47158539 -107.35591125 115.91349792 C-109.15248704 114.12570859 -110.9416672 112.33072174 -112.73046875 110.53515625 C-113.97759749 109.28937485 -115.22502298 108.04389047 -116.47273254 106.7986908 C-119.08429057 104.19007969 -121.69220077 101.57788927 -124.29760742 98.96313477 C-127.64008454 95.60925161 -130.99147517 92.26444208 -134.34563732 88.92224979 C-136.92197852 86.35312871 -139.49354563 83.77927164 -142.06368446 81.20394707 C-143.29781526 79.96848081 -144.53343704 78.73450209 -145.77055931 77.50203133 C-147.49669642 75.78096313 -149.21630911 74.05363164 -150.93432617 72.32446289 C-151.70496902 71.55989273 -151.70496902 71.55989273 -152.49118042 70.77987671 C-156.90152965 66.31624228 -157.63512976 62.64174872 -157.6171875 56.5234375 C-156.7480304 51.84654454 -153.62948131 48.91168855 -150.125 45.875 C-147.86811085 44.74655542 -146.44789384 44.6445955 -143.9375 44.5625 C-142.83341797 44.50642578 -142.83341797 44.50642578 -141.70703125 44.44921875 C-134.20576185 45.68619056 -129.08073138 51.51520447 -124.00390625 56.703125 C-123.25914536 57.45213074 -122.51438446 58.20113647 -121.74705505 58.97283936 C-119.38668953 61.3499013 -117.0370127 63.73721535 -114.6875 66.125 C-113.08207658 67.74548186 -111.47596376 69.36528104 -109.86914062 70.984375 C-105.9464141 74.94005085 -102.03239375 78.90418092 -98.125 82.875 C-95.0744115 81.51219899 -92.98232608 79.97732731 -90.63378906 77.61083984 C-89.96093872 76.93784851 -89.28808838 76.26485718 -88.59484863 75.57147217 C-87.86745483 74.83374573 -87.14006104 74.09601929 -86.390625 73.3359375 C-85.61618042 72.55857239 -84.84173584 71.78120728 -84.04382324 70.98028564 C-82.36321423 69.29206661 -80.68491976 67.60154105 -79.00866699 65.90899658 C-76.3571537 63.23198206 -73.69946474 60.56124262 -71.04003906 57.89208984 C-65.3960979 52.22527653 -59.75995074 46.55074903 -54.125 40.875 C-47.59609979 34.2988291 -41.06392427 27.72596972 -34.52331543 21.16143799 C-31.90238652 18.52752223 -29.28754389 15.88766343 -26.67285156 13.24755859 C-25.06865543 11.63609845 -23.46417843 10.02491785 -21.859375 8.4140625 C-20.7682843 7.30747284 -20.7682843 7.30747284 -19.65515137 6.17852783 C-18.98230103 5.5055365 -18.30945068 4.83254517 -17.61621094 4.13916016 C-17.03514587 3.55365387 -16.45408081 2.96814758 -15.85540771 2.36489868 C-10.98137487 -1.83169328 -6.02944061 -2.17059862 0 0 Z " fill="#FCFCFC" transform="translate(222.125,354.125)"/>
<path d="M0 0 C13.02923817 0.4746833 26.00874211 1.42686952 39 2.5 C39.80852417 2.56571198 40.61704834 2.63142395 41.45007324 2.6991272 C43.77955571 2.88931494 46.10857154 3.0844059 48.4375 3.28125 C49.14094543 3.33854782 49.84439087 3.39584564 50.56915283 3.45487976 C53.80895287 3.73510085 56.86434104 4.14303308 60 5 C62.20633506 5.15635445 64.41536469 5.27563738 66.625 5.375 C75.11543757 5.82508341 83.52168729 6.82685039 91.9609375 7.83666992 C102.62342779 9.10190861 113.30215235 10.08886067 124 11 C124 11.33 124 11.66 124 12 C114.5399271 12.1351153 105.18468133 11.73777415 95.75 11.0625 C94.43386719 10.97548828 93.11773437 10.88847656 91.76171875 10.79882812 C90.51519531 10.71181641 89.26867187 10.62480469 87.984375 10.53515625 C86.85741211 10.456604 85.73044922 10.37805176 84.56933594 10.29711914 C82 10 82 10 81 9 C78.07954188 8.78717309 75.17445923 8.62299128 72.25 8.5 C67.38284455 8.29140762 62.77810582 7.99058291 58 7 C56.29164118 6.98137303 54.58245459 7.00388589 52.875 7.0625 C49.11278343 7.09742774 45.68706173 6.8658582 42 6.125 C29.71699548 3.6683991 17.31340173 2.6707756 4.80859375 3.22265625 C3.88175781 3.14917969 2.95492187 3.07570313 2 3 C1.34 2.01 0.68 1.02 0 0 Z " fill="#A187D3" transform="translate(170,115)"/>
<path d="M0 0 C0.33 0 0.66 0 1 0 C1 38.94 1 77.88 1 118 C0.67 118 0.34 118 0 118 C-0.19916016 116.66195312 -0.19916016 116.66195312 -0.40234375 115.296875 C-0.57894531 114.12640625 -0.75554688 112.9559375 -0.9375 111.75 C-1.11152344 110.58984375 -1.28554688 109.4296875 -1.46484375 108.234375 C-1.8727736 105.76893039 -2.33901303 103.40575438 -3 101 C-2.34 101 -1.68 101 -1 101 C-0.67 67.67 -0.34 34.34 0 0 Z " fill="#8A7BD2" transform="translate(531,230)"/>
<path d="M0 0 C2.4837537 2.4837537 2.32803116 3.56777522 2.5625 7 C2.77217523 10.63718775 2.77217523 10.63718775 4 14 C4.09334432 16.86831552 4.12574811 19.71218264 4.11352539 22.58056641 C4.11367142 23.46843338 4.11381744 24.35630035 4.1139679 25.27107239 C4.11326955 28.21459369 4.10548081 31.15805221 4.09765625 34.1015625 C4.09579179 36.13894618 4.09436802 38.17633031 4.09336853 40.2137146 C4.08954555 45.58297966 4.07971711 50.95221777 4.06866455 56.32147217 C4.05844574 61.7976444 4.0538699 67.27382098 4.04882812 72.75 C4.03809467 83.50001185 4.02102085 94.25000369 4 105 C3.67 105 3.34 105 3 105 C2.86722656 104.03578125 2.73445312 103.0715625 2.59765625 102.078125 C2.42105469 100.81484375 2.24445312 99.5515625 2.0625 98.25 C1.88847656 96.99703125 1.71445312 95.7440625 1.53515625 94.453125 C1.13950662 91.90017407 0.69553578 89.4813709 0 87 C0.66 87 1.32 87 2 87 C2.04661874 78.09767047 2.08201775 69.19538383 2.10362434 60.29295826 C2.11400148 56.1579077 2.1280478 52.02294149 2.15087891 47.88793945 C2.17282631 43.88733291 2.18461409 39.8868068 2.18975449 35.88614464 C2.19341138 34.37015202 2.20055058 32.85416312 2.21146011 31.33820534 C2.2692311 22.96724475 1.93539484 14.92174817 0.43063354 6.65141296 C0 4 0 4 0 0 Z " fill="#F5E8B8" transform="translate(528,121)"/>
<path d="M0 0 C12.57046576 -0.33405765 24.66609081 0.11140557 37.12548828 1.8581543 C44.72898106 2.90641852 52.26450886 3.45777061 59.93408203 3.70874023 C65.82179201 3.910896 65.82179201 3.910896 68 5 C71.22646114 5.2307231 74.44576922 5.39522303 77.67773438 5.51757812 C79.4567469 5.60903076 81.23020624 5.79731996 83 6 C83.495 6.99 83.495 6.99 84 8 C71.53604675 7.48990056 59.16607525 6.64444909 46.76147461 5.32873535 C42.44109272 4.87074211 38.11894646 4.4299976 33.796875 3.98828125 C32.95261963 3.90166229 32.10836426 3.81504333 31.23852539 3.72579956 C20.83826075 2.66587813 10.42289936 1.80502068 0 1 C0 0.67 0 0.34 0 0 Z " fill="#EEDBC3" transform="translate(342,131)"/>
<path d="M0 0 C7.33391029 0.32115546 14.66713047 0.65591828 22 1 C22.92151855 1.0427002 23.84303711 1.08540039 24.79248047 1.12939453 C27.29945329 1.24758238 29.8059838 1.37253693 32.3125 1.5 C33.0761084 1.53536865 33.8397168 1.5707373 34.62646484 1.60717773 C39.88499853 1.88499853 39.88499853 1.88499853 41 3 C43.67060873 3.21083753 46.3252135 3.37591197 49 3.5 C56.86486486 3.86486486 56.86486486 3.86486486 58 5 C61.39570436 5.23690961 64.78416702 5.3964169 68.18554688 5.51757812 C73.78671875 5.78671875 73.78671875 5.78671875 76 8 C61.75920177 7.46223279 47.63296176 6.30366121 33.45849609 4.84326172 C30.08094038 4.49546303 26.70267154 4.15537006 23.32421875 3.81640625 C21.15620552 3.5967928 18.98823505 3.37675673 16.8203125 3.15625 C15.82033234 3.05517944 14.82035217 2.95410889 13.79006958 2.84997559 C9.16173553 2.3713318 4.57971453 1.84299851 0 1 C0 0.67 0 0.34 0 0 Z " fill="#ECD9C7" transform="translate(246,121)"/>
<path d="M0 0 C0.33 0 0.66 0 1 0 C0.85895309 2.91697011 0.71235186 5.8334802 0.5625 8.75 C0.52318359 9.575 0.48386719 10.4 0.44335938 11.25 C0.40146484 12.04921875 0.35957031 12.8484375 0.31640625 13.671875 C0.27974854 14.4050293 0.24309082 15.13818359 0.20532227 15.89355469 C0 18 0 18 -0.51367188 19.78125 C-1.24365674 23.1116227 -1.12186758 26.43627055 -1.09765625 29.828125 C-1.0962413 30.57713074 -1.09482635 31.32613647 -1.09336853 32.09783936 C-1.08778659 34.48193412 -1.07523745 36.86593378 -1.0625 39.25 C-1.05748266 40.86979031 -1.05292016 42.48958209 -1.04882812 44.109375 C-1.03782308 48.07295312 -1.02057091 52.03646045 -1 56 C-0.01 55.505 -0.01 55.505 1 55 C0.86722656 55.556875 0.73445312 56.11375 0.59765625 56.6875 C-0.58220305 61.7858701 -1.43249539 66.79787441 -2 72 C-2.33 72 -2.66 72 -3 72 C-3.02314782 64.73305527 -3.04092756 57.46611846 -3.05181217 50.19914436 C-3.05703565 46.82496974 -3.06412361 43.45082029 -3.07543945 40.07666016 C-3.08752436 36.19953741 -3.09323263 32.3224506 -3.09765625 28.4453125 C-3.10539818 26.6233989 -3.10539818 26.6233989 -3.11329651 24.76467896 C-3.11340981 23.08316238 -3.11340981 23.08316238 -3.11352539 21.36767578 C-3.115746 20.37728302 -3.11796661 19.38689026 -3.12025452 18.3664856 C-3 16 -3 16 -2 14 C-1.61076473 11.63049479 -1.2619422 9.2542428 -0.9375 6.875 C-0.76089844 5.59367187 -0.58429688 4.31234375 -0.40234375 2.9921875 C-0.26957031 2.00476563 -0.13679687 1.01734375 0 0 Z " fill="#ECDCBF" transform="translate(3,120)"/>
<path d="M0 0 C0.86206055 0.00193359 1.72412109 0.00386719 2.61230469 0.00585938 C10.60077389 0.05878262 18.53666871 0.50216962 26.5 1.125 C26.5 1.785 26.5 2.445 26.5 3.125 C27.16 3.455 27.82 3.785 28.5 4.125 C21.174889 4.25129502 21.174889 4.25129502 17.828125 3.625 C14.14063469 3.07101085 10.64265962 3.01242936 6.9140625 3.02734375 C6.21227875 3.0287587 5.510495 3.03017365 4.78744507 3.03163147 C2.56658496 3.0371871 0.34582916 3.04973108 -1.875 3.0625 C-3.38932145 3.06752074 -4.9036445 3.07208264 -6.41796875 3.07617188 C-10.11201252 3.08714193 -13.80599606 3.10437551 -17.5 3.125 C-17.5 2.465 -17.5 1.805 -17.5 1.125 C-11.6234162 0.2758606 -5.93381819 -0.03251407 0 0 Z " fill="#E7D1C3" transform="translate(93.5,105.875)"/>
<path d="M0 0 C2.30589428 0.41368203 4.61881779 0.79034484 6.9375 1.125 C8.65259766 1.37636719 8.65259766 1.37636719 10.40234375 1.6328125 C11.25957031 1.75398438 12.11679688 1.87515625 13 2 C13 2.33 13 2.66 13 3 C-0.35508602 2.25368637 -13.67407804 1.14665686 -27 0 C-27 -0.33 -27 -0.66 -27 -1 C-23.81360234 -1.22821192 -20.62602344 -1.42892029 -17.4375 -1.625 C-16.54224609 -1.68945312 -15.64699219 -1.75390625 -14.72460938 -1.8203125 C-9.31887461 -2.13713212 -5.19897001 -1.73299 0 0 Z " fill="#E8D5C7" transform="translate(165,112)"/>
<path d="M0 0 C0 0.33 0 0.66 0 1 C-5.61129933 2.55799056 -10.81597601 3.38142039 -16.625 3.625 C-17.78491455 3.68192017 -17.78491455 3.68192017 -18.96826172 3.73999023 C-25.98027494 4.05780091 -32.9813685 4.10155576 -40 4 C-40 3.67 -40 3.34 -40 3 C-35.58965421 2.56785354 -31.17885222 2.14080122 -26.76757812 1.71826172 C-25.27005019 1.57411982 -23.77265055 1.42863801 -22.27539062 1.28173828 C-20.11100907 1.06962889 -17.94619679 0.86250077 -15.78125 0.65625 C-13.8331543 0.46772461 -13.8331543 0.46772461 -11.84570312 0.27539062 C-7.87000298 -0.00930908 -3.98360433 -0.04650122 0 0 Z " fill="#211A3D" transform="translate(192,287)"/>
<path d="M0 0 C0.88945312 0.00322266 1.77890625 0.00644531 2.6953125 0.00976562 C4.07589844 0.02233398 4.07589844 0.02233398 5.484375 0.03515625 C6.42023438 0.03966797 7.35609375 0.04417969 8.3203125 0.04882812 C10.62506541 0.06058707 12.92968727 0.07702199 15.234375 0.09765625 C12.75379872 2.57823253 11.87245036 2.3878463 8.4453125 2.51171875 C7.50429687 2.55039062 6.56328125 2.5890625 5.59375 2.62890625 C4.60890625 2.65984375 3.6240625 2.69078125 2.609375 2.72265625 C1.12050781 2.78066406 1.12050781 2.78066406 -0.3984375 2.83984375 C-2.85397885 2.93428765 -5.3095091 3.019855 -7.765625 3.09765625 C-8.095625 2.43765625 -8.425625 1.77765625 -8.765625 1.09765625 C-5.76855805 0.22802538 -3.11605974 -0.01997474 0 0 Z " fill="#9381D9" transform="translate(182.765625,284.90234375)"/>
<path d="M0 0 C4.0838088 0.11167374 8.16683936 0.24185346 12.25 0.375 C13.38953125 0.4059375 14.5290625 0.436875 15.703125 0.46875 C23.28125922 0.72709548 30.55619999 1.55570593 38 3 C38 3.33 38 3.66 38 4 C35.89590361 4.02701408 33.79170822 4.04640223 31.6875 4.0625 C30.51574219 4.07410156 29.34398437 4.08570312 28.13671875 4.09765625 C25 4 25 4 22 3 C20.55499799 2.87687003 19.10577252 2.79947232 17.65625 2.75390625 C16.82222656 2.72103516 15.98820312 2.68816406 15.12890625 2.65429688 C13.37643397 2.59310356 11.62382114 2.53581105 9.87109375 2.48242188 C9.03707031 2.44826172 8.20304687 2.41410156 7.34375 2.37890625 C6.58255859 2.3538501 5.82136719 2.32879395 5.03710938 2.30297852 C3 2 3 2 0 0 Z " fill="#A288D7" transform="translate(108,109)"/>
<path d="M0 0 C2.26438168 3.39657253 3.1538781 6.65999529 4.125 10.5625 C4.30385742 11.27470703 4.48271484 11.98691406 4.66699219 12.72070312 C5.96858526 18.19979014 6.48767408 23.36465511 6 29 C5.67 29 5.34 29 5 29 C4.86722656 28.05898437 4.73445312 27.11796875 4.59765625 26.1484375 C4.42105469 24.90320313 4.24445312 23.65796875 4.0625 22.375 C3.88847656 21.14523438 3.71445312 19.91546875 3.53515625 18.6484375 C3.06225699 15.42443816 2.54848998 12.21187824 2 9 C1.01 9 0.02 9 -1 9 C-0.67 6.03 -0.34 3.06 0 0 Z " fill="#A58CC9" transform="translate(525,199)"/>
<path d="M0 0 C9.08009321 -0.4490156 17.19421143 0.81157917 26 3 C26 3.33 26 3.66 26 4 C20.06 4.495 20.06 4.495 14 5 C14 4.01 14 3.02 14 2 C13.24074219 2.02320313 12.48148437 2.04640625 11.69921875 2.0703125 C10.70535156 2.08835938 9.71148437 2.10640625 8.6875 2.125 C7.20830078 2.15980469 7.20830078 2.15980469 5.69921875 2.1953125 C3 2 3 2 0 0 Z " fill="#A58BD3" transform="translate(438,141)"/>
<path d="M0 0 C0.33 0 0.66 0 1 0 C0.85895309 2.91697011 0.71235186 5.8334802 0.5625 8.75 C0.52318359 9.575 0.48386719 10.4 0.44335938 11.25 C0.40146484 12.04921875 0.35957031 12.8484375 0.31640625 13.671875 C0.27974854 14.4050293 0.24309082 15.13818359 0.20532227 15.89355469 C-0.00154072 18.01580658 -0.46651743 19.93900678 -1 22 C-1.2198223 24.24707241 -1.40483987 26.49771238 -1.5625 28.75 C-1.64628906 29.92046875 -1.73007812 31.0909375 -1.81640625 32.296875 C-1.87699219 33.18890625 -1.93757812 34.0809375 -2 35 C-2.33 35 -2.66 35 -3 35 C-3.02895976 31.87501937 -3.04678483 28.7500731 -3.0625 25.625 C-3.07087891 24.73554688 -3.07925781 23.84609375 -3.08789062 22.9296875 C-3.09111328 22.07890625 -3.09433594 21.228125 -3.09765625 20.3515625 C-3.10289307 19.56604004 -3.10812988 18.78051758 -3.11352539 17.97119141 C-3 16 -3 16 -2 14 C-1.61076473 11.63049479 -1.2619422 9.2542428 -0.9375 6.875 C-0.76089844 5.59367187 -0.58429688 4.31234375 -0.40234375 2.9921875 C-0.26957031 2.00476563 -0.13679687 1.01734375 0 0 Z " fill="#F8EDC0" transform="translate(3,120)"/>
<path d="M0 0 C10.76645841 -0.39389482 21.31427866 0.81739052 32 2 C32 2.33 32 2.66 32 3 C29.27132267 3.22262638 26.54308042 3.42852324 23.8125 3.625 C23.04357422 3.68945312 22.27464844 3.75390625 21.48242188 3.8203125 C17.02491314 4.12640752 14.12073142 3.91924477 10 2 C7.3383813 1.55450643 7.3383813 1.55450643 4.6875 1.375 C3.80449219 1.30023438 2.92148437 1.22546875 2.01171875 1.1484375 C1.34785156 1.09945312 0.68398438 1.05046875 0 1 C0 0.67 0 0.34 0 0 Z " fill="#9F83D3" transform="translate(322,130)"/>
<path d="M0 0 C0 0.66 0 1.32 0 2 C0.99 2.33 1.98 2.66 3 3 C0.37549914 3.22119939 -2.24870486 3.42746669 -4.875 3.625 C-5.62136719 3.68945312 -6.36773437 3.75390625 -7.13671875 3.8203125 C-9.0870047 3.96087365 -11.04469467 3.98759849 -13 4 C-13.66 3.34 -14.32 2.68 -15 2 C-10.14961071 0.58530312 -5.03999277 0 0 0 Z " fill="#9884E5" transform="translate(291,274)"/>
<path d="M0 0 C0 3.33303184 -0.60891251 4.42258421 -2.25 7.25 C-2.70246094 8.03761719 -3.15492187 8.82523438 -3.62109375 9.63671875 C-4.07613281 10.41660156 -4.53117188 11.19648438 -5 12 C-5.77174995 13.35364449 -6.54269282 14.70774973 -7.3125 16.0625 C-8.1478125 17.5165625 -8.1478125 17.5165625 -9 19 C-9.66 19 -10.32 19 -11 19 C-9.70383226 13.94494583 -7.30914173 10.25426176 -4.33984375 6.05078125 C-2.84084175 3.94610157 -2.84084175 3.94610157 -2 1 C-1.34 0.67 -0.68 0.34 0 0 Z " fill="#A789CF" transform="translate(20,143)"/>
<path d="M0 0 C-1.64167555 1.64167555 -3.74858118 1.51852535 -6 1.875 C-10.57351548 2.65410342 -14.71644937 3.81153424 -19.02734375 5.51171875 C-21.35755485 6.08850368 -22.74799213 5.75066929 -25 5 C-18.11401175 1.55700588 -7.54065882 -2.76927421 0 0 Z " fill="#A286CF" transform="translate(80,110)"/>
<path d="M0 0 C0.51046875 0.23589844 1.0209375 0.47179688 1.546875 0.71484375 C-0.69619528 1.91734533 -2.9460041 3.10175995 -5.203125 4.27734375 C-6.15445313 4.79071289 -6.15445313 4.79071289 -7.125 5.31445312 C-11.90407938 7.77866593 -11.90407938 7.77866593 -14.90625 7.4296875 C-15.41671875 7.19378906 -15.9271875 6.95789063 -16.453125 6.71484375 C-14.21005472 5.51234217 -11.9602459 4.32792755 -9.703125 3.15234375 C-8.75179687 2.63897461 -8.75179687 2.63897461 -7.78125 2.11523438 C-3.00217062 -0.34897843 -3.00217062 -0.34897843 0 0 Z " fill="#F8EDC1" transform="translate(99.453125,10.28515625)"/>
<path d="M0 0 C-5.11006836 3.40671224 -9.90687855 3.11059279 -15.875 2.5625 C-17.02742187 2.46066406 -18.17984375 2.35882813 -19.3671875 2.25390625 C-20.23601562 2.17011719 -21.10484375 2.08632813 -22 2 C-22 1.67 -22 1.34 -22 1 C-14.64206267 0.08839714 -7.41017023 -0.11459026 0 0 Z " fill="#211839" transform="translate(152,291)"/>
<path d="M0 0 C0.33 0 0.66 0 1 0 C1.125 6.75 1.125 6.75 0 9 C-0.66 9 -1.32 9 -2 9 C-3.25664978 6.09399739 -4 4.20395416 -4 1 C-2.68 1.33 -1.36 1.66 0 2 C0 1.34 0 0.68 0 0 Z " fill="#9380E8" transform="translate(530,322)"/>
<path d="M0 0 C0.66 0 1.32 0 2 0 C2 0.66 2 1.32 2 2 C2.66 2 3.32 2 4 2 C4 7.28 4 12.56 4 18 C3.67 18 3.34 18 3 18 C2.86722656 17.03578125 2.73445312 16.0715625 2.59765625 15.078125 C2.33275391 13.18320313 2.33275391 13.18320313 2.0625 11.25 C1.88847656 9.99703125 1.71445312 8.7440625 1.53515625 7.453125 C1.13950662 4.90017407 0.69553578 2.4813709 0 0 Z " fill="#EFE1C5" transform="translate(528,208)"/>
<path d="M0 0 C6.6 0.33 13.2 0.66 20 1 C20 1.33 20 1.66 20 2 C17.04196565 2.19421438 14.08379837 2.38066186 11.125 2.5625 C10.28324219 2.61857422 9.44148438 2.67464844 8.57421875 2.73242188 C7.76855469 2.78076172 6.96289062 2.82910156 6.1328125 2.87890625 C5.38918457 2.9260376 4.64555664 2.97316895 3.87939453 3.02172852 C2 3 2 3 0 2 C0 1.34 0 0.68 0 0 Z " fill="#A186D3" transform="translate(418,139)"/>
<path d="M0 0 C-5.94 3.465 -5.94 3.465 -12 7 C-12.66 6.01 -13.32 5.02 -14 4 C-11.69 3.34 -9.38 2.68 -7 2 C-7 1.34 -7 0.68 -7 0 C-4 -1 -4 -1 0 0 Z " fill="#9684D9" transform="translate(52,307)"/>
<path d="M0 0 C0.33 0.99 0.66 1.98 1 3 C-1.31 4.98 -3.62 6.96 -6 9 C-6.66 8.34 -7.32 7.68 -8 7 C-5.36 4.69 -2.72 2.38 0 0 Z " fill="#FAECB9" transform="translate(55,36)"/>
<path d="M0 0 C6.0546875 -0.1953125 6.0546875 -0.1953125 8 0 C8.66 0.66 9.32 1.32 10 2 C6.32612505 2.85298376 2.9552607 3.10789471 -0.8125 3.0625 C-2.27623047 3.04896484 -2.27623047 3.04896484 -3.76953125 3.03515625 C-4.87361328 3.01775391 -4.87361328 3.01775391 -6 3 C-6 2.67 -6 2.34 -6 2 C-4.02 1.67 -2.04 1.34 0 1 C0 0.67 0 0.34 0 0 Z " fill="#8473C6" transform="translate(346,269)"/>
<path d="M0 0 C-1 2 -1 2 -3.50390625 2.8515625 C-4.51324219 3.10679687 -5.52257812 3.36203125 -6.5625 3.625 C-7.57441406 3.88539063 -8.58632813 4.14578125 -9.62890625 4.4140625 C-10.41136719 4.60742188 -11.19382813 4.80078125 -12 5 C-12.66 4.34 -13.32 3.68 -14 3 C-4.58997722 -0.44419134 -4.58997722 -0.44419134 0 0 Z " fill="#9582DE" transform="translate(69,299)"/>
<path d="M0 0 C2.98479194 4.47718792 4 8.63824093 4 14 C3.34 14 2.68 14 2 14 C1.66179834 12.4176994 1.32964061 10.83410625 1 9.25 C0.814375 8.36828125 0.62875 7.4865625 0.4375 6.578125 C0 4 0 4 0 0 Z " fill="#F5EBC1" transform="translate(524,106)"/>
<path d="M0 0 C5.77807024 -0.2358396 10.51324804 0.13216954 16 2 C16 2.66 16 3.32 16 4 C10.72 3.01 5.44 2.02 0 1 C0 0.67 0 0.34 0 0 Z " fill="#EFDAC8" transform="translate(450,141)"/>
<path d="M0 0 C1.22589844 0.15275391 1.22589844 0.15275391 2.4765625 0.30859375 C3.41628906 0.43427734 3.41628906 0.43427734 4.375 0.5625 C1.16317851 2.46858098 -1.16382603 2.78516247 -4.875 2.6875 C-5.76703125 2.66945313 -6.6590625 2.65140625 -7.578125 2.6328125 C-8.59132813 2.59800781 -8.59132813 2.59800781 -9.625 2.5625 C-5.76762989 -0.00908007 -4.50963704 -0.57981048 0 0 Z " fill="#A28CEE" transform="translate(374.625,266.4375)"/>
<path d="M0 0 C2.12508244 3.18762365 2.5020163 5.26512223 3 9 C1.68 9 0.36 9 -1 9 C-0.67 6.03 -0.34 3.06 0 0 Z " fill="#B79AD9" transform="translate(525,199)"/>
<path d="M0 0 C-0.99 0.33 -1.98 0.66 -3 1 C-3 1.66 -3 2.32 -3 3 C-5.375 3.625 -5.375 3.625 -8 4 C-8.66 3.34 -9.32 2.68 -10 2 C-8.71211992 1.46987262 -7.41953322 0.9511671 -6.125 0.4375 C-5.40570313 0.14746094 -4.68640625 -0.14257812 -3.9453125 -0.44140625 C-2 -1 -2 -1 0 0 Z " fill="#140E2C" transform="translate(66,302)"/>
<path d="M0 0 C0.66 0.99 1.32 1.98 2 3 C1.34 3 0.68 3 0 3 C0 4.65 0 6.3 0 8 C-1.98 8.99 -1.98 8.99 -4 10 C-2.8905928 6.51329166 -1.73662334 3.22515763 0 0 Z " fill="#FAECC3" transform="translate(17,83)"/>
<path d="M0 0 C0.66 0.33 1.32 0.66 2 1 C1.25 3.4375 1.25 3.4375 0 6 C-2.125 6.8125 -2.125 6.8125 -4 7 C-2.79618552 4.50638429 -1.54571278 2.31856917 0 0 Z " fill="#F9EFBF" transform="translate(36,54)"/>
<path d="M0 0 C0.66 0.33 1.32 0.66 2 1 C1.34 1.66 0.68 2.32 0 3 C0.33 3.99 0.66 4.98 1 6 C-1.31 6 -3.62 6 -6 6 C-4 4 -2 2 0 0 Z " fill="#FAEEBE" transform="translate(62,30)"/>
<path d="M0 0 C0 0.33 0 0.66 0 1 C-5.16044765 2.512545 -8.65998179 3.33500455 -14 2 C-14 1.67 -14 1.34 -14 1 C-9.23692563 0.04738513 -4.8333472 -0.08333357 0 0 Z " fill="#100B2B" transform="translate(192,287)"/>
<path d="M0 0 C0 0.66 0 1.32 0 2 C0.99 2.33 1.98 2.66 3 3 C1.54207116 3.05399736 0.08357288 3.09279177 -1.375 3.125 C-2.18710938 3.14820312 -2.99921875 3.17140625 -3.8359375 3.1953125 C-6 3 -6 3 -8 1 C-2.25 0 -2.25 0 0 0 Z " fill="#F9E9B9" transform="translate(244,118)"/>
<path d="M0 0 C3.68754757 0.49831724 5.60490662 1.10067643 8 4 C4 4 4 4 1 3 C0.67 2.01 0.34 1.02 0 0 Z " fill="#F9EDC2" transform="translate(437,12)"/>
<path d="M0 0 C1.98 0.66 3.96 1.32 6 2 C6.33 3.65 6.66 5.3 7 7 C5.83040013 6.02433888 4.66438823 5.044375 3.5 4.0625 C2.8503125 3.51722656 2.200625 2.97195312 1.53125 2.41015625 C1.0259375 1.94480469 0.520625 1.47945312 0 1 C0 0.67 0 0.34 0 0 Z " fill="#E6D1CB" transform="translate(501,165)"/>
<path d="M0 0 C-3.03525486 2.02350324 -4.19426202 2.32124018 -7.6875 2.625 C-8.49574219 2.69976562 -9.30398437 2.77453125 -10.13671875 2.8515625 C-10.75160156 2.90054687 -11.36648437 2.94953125 -12 3 C-11 1 -11 1 -7.6875 -0.1875 C-4.42437937 -0.90649268 -3.00717118 -1.20286847 0 0 Z " fill="#F9EFC6" transform="translate(113,7)"/>
</svg>
